<?xml version="1.0" encoding="UTF-8"?>
<svg version="1.1" xmlns="http://www.w3.org/2000/svg" width="500" height="500">
<path d="M0 0 C165 0 330 0 500 0 C500 165 500 330 500 500 C335 500 170 500 0 500 C0 335 0 170 0 0 Z " fill="#FEFEFE" transform="translate(0,0)"/>
<path d="M0 0 C2.03656984 -0.00957485 4.07207062 -0.04057181 6.10839844 -0.07226562 C19.34124276 -0.18253096 31.65751493 1.9145127 43.82714844 7.36523438 C45.16797485 7.95618896 45.16797485 7.95618896 46.53588867 8.55908203 C72.31464075 20.27775559 91.68106681 42.3755834 101.63964844 68.67773438 C105.66008285 79.66234008 106.54868469 89.50156424 106.51782227 101.06811523 C106.51466886 103.53674795 106.53815499 106.00417155 106.56347656 108.47265625 C106.60034897 117.47456477 106.083831 125.61549811 103.20214844 134.24023438 C102.96713623 134.94849365 102.73212402 135.65675293 102.48999023 136.38647461 C92.61763215 164.16683107 73.43067368 186.02872237 46.78417969 198.70898438 C32.78668518 204.69264615 19.37445968 207.61428815 4.17260742 207.61083984 C2.03514588 207.61519263 -0.10020901 207.65156746 -2.23730469 207.68945312 C-25.63491366 207.87938438 -49.61475319 197.88550396 -66.41992188 181.60644531 C-67.88462629 180.15647079 -69.34150099 178.69859926 -70.79785156 177.24023438 C-71.53390625 176.57507813 -72.26996094 175.90992188 -73.02832031 175.22460938 C-89.43189799 160.16344025 -99.6860181 135.95844323 -100.99072266 113.99316406 C-101.78294322 81.23844467 -94.59427081 54.82036716 -71.90722656 30.31835938 C-57.11235232 15.74266845 -38.19230966 5.30038683 -17.79785156 1.24023438 C-17.05929932 1.0689502 -16.32074707 0.89766602 -15.55981445 0.72119141 C-10.41956098 -0.17391151 -5.20538977 0.01472529 0 0 Z " fill="#FCFDFD" transform="translate(244.7978515625,234.759765625)"/>
<path d="M0 0 C2.03656984 -0.00957485 4.07207062 -0.04057181 6.10839844 -0.07226562 C19.34124276 -0.18253096 31.65751493 1.9145127 43.82714844 7.36523438 C45.16797485 7.95618896 45.16797485 7.95618896 46.53588867 8.55908203 C72.31464075 20.27775559 91.68106681 42.3755834 101.63964844 68.67773438 C105.66008285 79.66234008 106.54868469 89.50156424 106.51782227 101.06811523 C106.51466886 103.53674795 106.53815499 106.00417155 106.56347656 108.47265625 C106.60034897 117.47456477 106.083831 125.61549811 103.20214844 134.24023438 C102.96713623 134.94849365 102.73212402 135.65675293 102.48999023 136.38647461 C92.61763215 164.16683107 73.43067368 186.02872237 46.78417969 198.70898438 C32.78668518 204.69264615 19.37445968 207.61428815 4.17260742 207.61083984 C2.03514588 207.61519263 -0.10020901 207.65156746 -2.23730469 207.68945312 C-25.63491366 207.87938438 -49.61475319 197.88550396 -66.41992188 181.60644531 C-67.88462629 180.15647079 -69.34150099 178.69859926 -70.79785156 177.24023438 C-71.53390625 176.57507813 -72.26996094 175.90992188 -73.02832031 175.22460938 C-87.14966586 162.25890289 -99.07387794 139.84775872 -99.96582031 120.61914062 C-99.9826892 117.48490099 -99.93419759 114.37114316 -99.79785156 111.24023438 C-99.46785156 111.24023438 -99.13785156 111.24023438 -98.79785156 111.24023438 C-98.66830078 112.47773438 -98.66830078 112.47773438 -98.53613281 113.74023438 C-95.25186109 140.73755051 -82.47587251 166.13827046 -61.14550781 183.38476562 C-39.07588789 199.9448965 -13.41442453 208.02036105 14.20214844 205.24023438 C34.62448548 202.12676983 53.32726846 194.58188882 69.20214844 181.24023438 C69.99105469 180.60859375 70.77996094 179.97695313 71.59277344 179.32617188 C90.25305749 163.65857489 100.86900386 140.05634602 104.20214844 116.24023438 C104.48006282 112.50543214 104.53642062 108.79690922 104.51464844 105.05273438 C104.51045898 104.05387207 104.50626953 103.05500977 104.50195312 102.02587891 C104.37241318 93.44730303 103.30718518 85.55970569 101.20214844 77.24023438 C100.94691406 76.16128906 100.69167969 75.08234375 100.42871094 73.97070312 C96.75159717 60.29116522 89.52896147 47.81599429 80.20214844 37.24023438 C79.76 36.65628906 79.31785156 36.07234375 78.86230469 35.47070312 C66.7733691 19.780808 46.91794637 10.09036494 28.20214844 5.24023438 C26.54699219 4.76263672 26.54699219 4.76263672 24.85839844 4.27539062 C-0.52342351 -2.28158005 -26.50801153 3.57631789 -48.97753906 15.99804688 C-55.7371876 20.11511326 -61.83890435 25.04717066 -67.79785156 30.24023438 C-68.43464844 30.79195313 -69.07144531 31.34367187 -69.72753906 31.91210938 C-86.9655033 47.95850927 -93.9554984 70.00972747 -98.79785156 92.24023438 C-99.12785156 92.24023438 -99.45785156 92.24023438 -99.79785156 92.24023438 C-102.0240708 71.66007427 -87.9995338 50.1853969 -75.83691406 34.75195312 C-61.28412164 17.55589841 -39.81640177 5.62371298 -17.79785156 1.24023438 C-17.05929932 1.0689502 -16.32074707 0.89766602 -15.55981445 0.72119141 C-10.41956098 -0.17391151 -5.20538977 0.01472529 0 0 Z " fill="#474D55" transform="translate(244.7978515625,234.759765625)"/>
<path d="M0 0 C2.25 2.375 2.25 2.375 4 5 C3.67 5.99 3.34 6.98 3 8 C2.01 8 1.02 8 0 8 C0.66 8.99 1.32 9.98 2 11 C3.65 10.67 5.3 10.34 7 10 C7.495 16.435 7.495 16.435 8 23 C3.28538353 25.12918163 -1.41162646 27.16926406 -6.25 29 C-9.32392177 30.19173582 -11.08234989 31.07058562 -13.625 33.25 C-17.12924098 35.8320723 -19.72159905 35.29006108 -24 35 C-23.01 36.32 -22.02 37.64 -21 39 C-23.64 41.31 -26.28 43.62 -29 46 C-33.38338423 43.80830789 -33.52484974 43.12123402 -35.140625 38.8125 C-36.48321705 35.98085131 -38.74879713 34.12951623 -41 32 C-41 31.34 -41 30.68 -41 30 C-41.99 30.33 -42.98 30.66 -44 31 C-44.99 29.35 -45.98 27.7 -47 26 C-45.56458334 24.70601853 -44.12658648 23.41489889 -42.6875 22.125 C-41.88699219 21.40570313 -41.08648437 20.68640625 -40.26171875 19.9453125 C-37.22388006 17.33245643 -35.61990399 16.05635491 -31.5625 15.6875 C-28 16 -28 16 -25.5625 17.0625 C-23.23356006 19.95038552 -23.72949205 22.41576962 -24 26 C-22.741875 26.165 -21.48375 26.33 -20.1875 26.5 C-19.12595703 26.63921875 -19.12595703 26.63921875 -18.04296875 26.78125 C-15.84528294 27.053233 -15.84528294 27.053233 -13 27 C-11.75786086 22.72672888 -12.30853698 20.28458881 -13.9375 16.1875 C-14.50791016 14.72376953 -14.50791016 14.72376953 -15.08984375 13.23046875 C-15.39019531 12.49441406 -15.69054687 11.75835937 -16 11 C-16.66 11 -17.32 11 -18 11 C-18.33 9.02 -18.66 7.04 -19 5 C-16.39985473 3.96772138 -13.79573631 2.94894848 -11.1875 1.9375 C-10.44951172 1.64294922 -9.71152344 1.34839844 -8.95117188 1.04492188 C-3.33984375 -1.11328125 -3.33984375 -1.11328125 0 0 Z " fill="#21433D" transform="translate(223,246)"/>
<path d="M0 0 C1.04026131 3.0562438 2.05367159 6.12075112 3.0625 9.1875 C3.35705078 10.05181641 3.65160156 10.91613281 3.95507812 11.80664062 C4.22900391 12.64775391 4.50292969 13.48886719 4.78515625 14.35546875 C5.04176025 15.12528076 5.29836426 15.89509277 5.56274414 16.68823242 C6.07533477 19.39829421 5.69046924 21.3508109 5 24 C3.68 24.33 2.36 24.66 1 25 C1 24.34 1 23.68 1 23 C0.24074219 23.28875 -0.51851562 23.5775 -1.30078125 23.875 C-2.79158203 24.431875 -2.79158203 24.431875 -4.3125 25 C-5.29863281 25.37125 -6.28476563 25.7425 -7.30078125 26.125 C-10 27 -10 27 -13 27 C-13 27.99 -13 28.98 -13 30 C-14.98 30.33 -16.96 30.66 -19 31 C-20.00906461 27.75274421 -21.00565122 24.50178926 -22 21.25 C-22.42925781 19.86941406 -22.42925781 19.86941406 -22.8671875 18.4609375 C-23.13789063 17.57148438 -23.40859375 16.68203125 -23.6875 15.765625 C-23.93886719 14.94868164 -24.19023437 14.13173828 -24.44921875 13.29003906 C-25 11 -25 11 -25 7 C-24.0925 7.0825 -23.185 7.165 -22.25 7.25 C-16.55186003 7.29699497 -11.27550356 4.9404151 -6 3 C-6 2.34 -6 1.68 -6 1 C-3.92446352 0.4465236 -2.15634036 0 0 0 Z " fill="#244540" transform="translate(177,348)"/>
<path d="M0 0 C2.52282636 0.59663481 5.0430122 1.20205141 7.5625 1.8125 C8.26697266 1.97814453 8.97144531 2.14378906 9.69726562 2.31445312 C14.38412291 3.45916942 18.61326048 4.98821013 23 7 C23 8.65 23 10.3 23 12 C22.01 12 21.02 12 20 12 C19.79503906 12.84304687 19.59007812 13.68609375 19.37890625 14.5546875 C19.10949219 15.65039062 18.84007812 16.74609375 18.5625 17.875 C18.29566406 18.96554687 18.02882813 20.05609375 17.75390625 21.1796875 C17 24 17 24 16 26 C16.66 26 17.32 26 18 26 C17.67 27.98 17.34 29.96 17 32 C12.49521817 31.33874762 8.24185172 30.28270374 3.875 29 C-1.53801568 27.4088835 -1.53801568 27.4088835 -7 26 C-6.67 24.02 -6.34 22.04 -6 20 C-5.01 20 -4.02 20 -3 20 C-1.54740402 14.51385626 -0.79686892 9.52936196 -1.02734375 3.84765625 C-1 2 -1 2 0 0 Z " fill="#1F403B" transform="translate(262,242)"/>
<path d="M0 0 C2.97 0.495 2.97 0.495 6 1 C6 1.99 6 2.98 6 4 C12.50422293 6.00865708 18.1781317 7.38614349 25 7 C24.35457968 14.42233372 22.10057498 20.9991786 17.8125 27.125 C13.82526998 29.78315335 10.65592734 29.86102766 6 29 C2.2800037 27.65507826 -0.37638613 25.74431333 -2.9375 22.6875 C-6.02834458 14.86948136 -2.55051796 7.57185018 0 0 Z " fill="#21423D" transform="translate(318,349)"/>
<path d="M0 0 C3.31609475 2.10019334 6.2282057 4.4564114 8 8 C8.40226867 13.22949274 7.9287695 16.60684575 5 21 C1.4967262 24.24693669 -1.32525948 25.30240166 -6 25.5625 C-9.52891204 25.41900508 -11.71708799 24.95313867 -14.5 22.75 C-18.23942952 18.63662753 -19.63142133 15.92350674 -19.5234375 10.16796875 C-18.48984491 5.88704421 -15.26852554 2.80659259 -12 0 C-7.78922844 -1.40359052 -4.27195544 -1.17408047 0 0 Z " fill="#1B3D37" transform="translate(337,322)"/>
<path d="M0 0 C4.36350222 2.22291622 7.09544338 4.45022584 9 9 C9.64475627 13.97383408 8.91814102 17.3405342 6.26171875 21.48828125 C4.15414528 24.01345442 2.09072694 24.96975769 -1 26 C-5.50943346 26.39556434 -9.02916043 26.25371975 -13 24 C-16.06472257 20.5947527 -17.87132992 18.33816883 -18.3125 13.75 C-17.83747392 8.04968708 -15.49908528 5.29466456 -11.25 1.625 C-7.26652261 -0.3667387 -4.36634417 -0.86281052 0 0 Z " fill="#1F403A" transform="translate(328,290)"/>
<path d="M0 0 C0 1.65 0 3.3 0 5 C0.99 5 1.98 5 3 5 C3 3.35 3 1.7 3 0 C7.70715168 0.5648582 11.42572908 1.47524303 16 3 C16 9.6 16 16.2 16 23 C14.02 23 12.04 23 10 23 C10 22.34 10 21.68 10 21 C3.4 21.33 -3.2 21.66 -10 22 C-10 15.73 -10 9.46 -10 3 C-2 0 -2 0 0 0 Z " fill="#20423C" transform="translate(161,324)"/>
<path d="M0 0 C0 4.66666667 0 9.33333333 0 14 C0.33 14.66 0.66 15.32 1 16 C1.46422487 21.84923339 1.46422487 21.84923339 1 24 C-1.40994087 26.68038311 -2.83596383 26.9860829 -6.453125 27.29296875 C-7.70609375 27.25816406 -8.9590625 27.22335937 -10.25 27.1875 C-11.51328125 27.16042969 -12.7765625 27.13335937 -14.078125 27.10546875 C-15.04234375 27.07066406 -16.0065625 27.03585937 -17 27 C-17 22 -17 17 -17 12 C-17.0825 10.700625 -17.165 9.40125 -17.25 8.0625 C-17.22946761 4.28453983 -17.22946761 4.28453983 -15.4375 2.0625 C-10.44222457 -0.11492775 -5.36106302 -0.03775396 0 0 Z " fill="#32514C" transform="translate(252,241)"/>
<path d="M0 0 C1.258125 0.12375 2.51625 0.2475 3.8125 0.375 C4.87404297 0.47941406 4.87404297 0.47941406 5.95703125 0.5859375 C8 1 8 1 11 3 C10.67 3.99 10.34 4.98 10 6 C12.31 7.32 14.62 8.64 17 10 C16.67 11.32 16.34 12.64 16 14 C14.35 14.33 12.7 14.66 11 15 C13.64 15.66 16.28 16.32 19 17 C19 21.13978192 18.67617664 21.98573504 16.5 25.25 C16.0359375 25.95640625 15.571875 26.6628125 15.09375 27.390625 C14.7328125 27.92171875 14.371875 28.4528125 14 29 C12.35 28.34 10.7 27.68 9 27 C9 26.01 9 25.02 9 24 C4.31055493 20.27439344 -0.93573706 17.31917173 -7 17 C-8 14 -8 14 -6.34765625 10.64453125 C-5.59622298 9.36110983 -4.83403499 8.08393866 -4.0625 6.8125 C-3.48338867 5.83120117 -3.48338867 5.83120117 -2.89257812 4.83007812 C-1.93746912 3.21464684 -0.96989934 1.60659475 0 0 Z " fill="#21423D" transform="translate(168,282)"/>
<path d="M0 0 C3.90285767 1.58667578 6.33520982 4.13350481 9.25 7.125 C10.14203125 8.03507812 11.0340625 8.94515625 11.953125 9.8828125 C12.62859375 10.58148438 13.3040625 11.28015625 14 12 C12.68 14.97 11.36 17.94 10 21 C9.278125 20.731875 8.55625 20.46375 7.8125 20.1875 C4.73609463 19.65105845 4.73609463 19.65105845 2.1875 22.4375 C1.465625 23.283125 0.74375 24.12875 0 25 C-1.32 24.34 -2.64 23.68 -4 23 C-3.67 21.68 -3.34 20.36 -3 19 C-3.66 19.33 -4.32 19.66 -5 20 C-5.12375 20.639375 -5.2475 21.27875 -5.375 21.9375 C-6 24 -6 24 -8.0390625 25.12890625 C-8.68617188 25.41636719 -9.33328125 25.70382812 -10 26 C-11.17561146 24.90536178 -12.3402489 23.79892814 -13.5 22.6875 C-14.1496875 22.07261719 -14.799375 21.45773437 -15.46875 20.82421875 C-17 19 -17 19 -17 16 C-16.154375 15.649375 -15.30875 15.29875 -14.4375 14.9375 C-10.73625766 12.85134523 -8.3645474 10.52494684 -5.515625 7.42578125 C-4 6 -4 6 -2 6 C-1.855625 5.195625 -1.71125 4.39125 -1.5625 3.5625 C-1 1 -1 1 0 0 Z " fill="#21413C" transform="translate(308,264)"/>
<path d="M0 0 C3.28788824 3.11016455 5.83735988 6.01618925 8 10 C5.55635047 11.53600827 3.28551886 12.89750605 0.5625 13.875 C-2.87509285 15.3841871 -5.18993717 17.51668866 -8 20 C-7.34 20.33 -6.68 20.66 -6 21 C-5.01 20.67 -4.02 20.34 -3 20 C-2.01 21.65 -1.02 23.3 0 25 C-1.23884319 25.72767003 -2.49168341 26.43154815 -3.75 27.125 C-4.44609375 27.51945312 -5.1421875 27.91390625 -5.859375 28.3203125 C-8 29 -8 29 -9.95678711 28.23730469 C-13.3348799 26.19163923 -15.40261864 23.20237775 -17.8125 20.125 C-18.32748047 19.49980469 -18.84246094 18.87460937 -19.37304688 18.23046875 C-20.09524414 17.31587891 -20.09524414 17.31587891 -20.83203125 16.3828125 C-21.27264893 15.82996582 -21.7132666 15.27711914 -22.16723633 14.70751953 C-23 13 -23 13 -22.72363281 10.88134766 C-21.45053053 7.57145354 -18.76513311 6.1179743 -16 4 C-14.4375 5.125 -14.4375 5.125 -13 7 C-13.26450794 9.01026035 -13.59356166 11.01356626 -14 13 C-12.3678622 11.75933437 -10.74452679 10.50708312 -9.125 9.25 C-8.22007812 8.55390625 -7.31515625 7.8578125 -6.3828125 7.140625 C-4.11538275 5.10365532 -3.21718573 3.71798754 -2 1 C-1.34 0.67 -0.68 0.34 0 0 Z " fill="#244540" transform="translate(187,377)"/>
<path d="M0 0 C2.475 0.99 2.475 0.99 5 2 C5 2.99 5 3.98 5 5 C10.35536038 7.33688453 14.27690335 8.30696998 20.1171875 7.91015625 C22 8 22 8 24 10 C23.64943961 13.24404156 22.31119278 15.18843829 20.27734375 17.671875 C19.73916016 18.33574219 19.20097656 18.99960937 18.64648438 19.68359375 C18.08251953 20.36550781 17.51855469 21.04742187 16.9375 21.75 C16.08575195 22.79607422 16.08575195 22.79607422 15.21679688 23.86328125 C13.81712814 25.58052188 12.41144064 27.29243295 11 29 C7.2704316 26.4225359 6.8785691 25.39284551 6 21 C3.9582354 16.6486984 2.3541921 13.55760851 -2.1875 11.6875 C-3.115625 11.460625 -4.04375 11.23375 -5 11 C-5.66 10.01 -6.32 9.02 -7 8 C-4.69 5.36 -2.38 2.72 0 0 Z " fill="#284944" transform="translate(306,379)"/>
<path d="M0 0 C1.29228516 0.00322266 2.58457031 0.00644531 3.91601562 0.00976562 C5.27083401 0.0181196 6.62565172 0.02658453 7.98046875 0.03515625 C9.3548161 0.04017625 10.7291652 0.04473828 12.10351562 0.04882812 C15.45837799 0.06059957 18.81315096 0.07704342 22.16796875 0.09765625 C22.16796875 0.42765625 22.16796875 0.75765625 22.16796875 1.09765625 C21.54567383 1.10700195 20.92337891 1.11634766 20.28222656 1.12597656 C-11.90908364 1.72845613 -37.15318162 8.59069638 -61.83203125 30.09765625 C-62.46882813 30.649375 -63.105625 31.20109375 -63.76171875 31.76953125 C-80.99968299 47.81593114 -87.98967809 69.86714934 -92.83203125 92.09765625 C-93.16203125 92.09765625 -93.49203125 92.09765625 -93.83203125 92.09765625 C-96.05825049 71.51749614 -82.03371349 50.04281877 -69.87109375 34.609375 C-55.31830133 17.41332029 -33.85058146 5.48113485 -11.83203125 1.09765625 C-11.09533203 0.92419678 -10.35863281 0.7507373 -9.59960938 0.57202148 C-6.3540774 0.01573456 -3.29306297 -0.01450689 0 0 Z " fill="#444A52" transform="translate(238.83203125,234.90234375)"/>
<path d="M0 0 C3.31609475 2.10019334 6.2282057 4.4564114 8 8 C8.04022391 10.3329866 8.04320247 12.66706666 8 15 C7.67 13.68 7.34 12.36 7 11 C6.34 11 5.68 11 5 11 C5 10.01 5 9.02 5 8 C1.64643758 7.00844188 -1.50886364 6.77041449 -5 6.6875 C-6.546875 6.63142578 -6.546875 6.63142578 -8.125 6.57421875 C-11.6953227 7.10297578 -12.84922045 8.15475188 -15 11 C-15.08805146 13.6433774 -15.08805146 13.6433774 -14 16 C-9.7583342 18.8277772 -5.98284464 18.66437928 -1 18 C1.41049138 16.91077993 2.95375076 15.72315725 5 14 C4.01387981 17.55003269 3.08032022 18.93395893 0.1875 21.3125 C-2.97385369 22.98615784 -4.50989741 23.4106003 -8 23 C-8 23.66 -8 24.32 -8 25 C-10.65696068 24.84817368 -12.44234524 24.52675976 -14.41015625 22.66796875 C-17.87394016 18.51748715 -19.51843428 15.73618342 -19.48828125 10.23828125 C-18.54166736 5.89900319 -15.29090798 2.82581178 -12 0 C-7.78922844 -1.40359052 -4.27195544 -1.17408047 0 0 Z " fill="#2A4A45" transform="translate(337,322)"/>
<path d="M0 0 C0.33 0.99 0.66 1.98 1 3 C2.7015625 2.690625 2.7015625 2.690625 4.4375 2.375 C8.592708 1.83718052 11.92136567 2.48221624 15.9453125 3.51953125 C18.33714498 4.07883809 20.55236141 4.15791217 23 4 C22.35457968 11.42233372 20.10057498 17.9991786 15.8125 24.125 C11.87905952 26.74729365 8.59308571 26.45030252 4 26 C3.87496094 25.36191406 3.74992187 24.72382813 3.62109375 24.06640625 C3.20931118 21.82021996 3.20931118 21.82021996 1.0625 20.9375 C0.381875 20.628125 -0.29875 20.31875 -1 20 C-3.29013653 16.5647952 -3.17842973 15.014669 -3 11 C-2.6596875 11.86625 -2.6596875 11.86625 -2.3125 12.75 C-0.55189415 15.76818146 1.0095224 17.1548117 4 19 C6.99372438 19.60778633 9.95082107 19.86713817 13 20 C13.66 18.68 14.32 17.36 15 16 C15.66 16 16.32 16 17 16 C17 14.35 17 12.7 17 11 C15.93072266 10.70996094 15.93072266 10.70996094 14.83984375 10.4140625 C9.54986672 8.97587225 4.26663967 7.52147368 -1 6 C-0.67 4.02 -0.34 2.04 0 0 Z " fill="#1D3D38" transform="translate(320,352)"/>
<path d="M0 0 C0 1.65 0 3.3 0 5 C0.99 5 1.98 5 3 5 C3 3.35 3 1.7 3 0 C7.70715168 0.5648582 11.42572908 1.47524303 16 3 C16 9.6 16 16.2 16 23 C15.67 23 15.34 23 15 23 C14.34 17.06 13.68 11.12 13 5 C12.01 5 11.02 5 10 5 C10.495 5.556875 10.99 6.11375 11.5 6.6875 C13.25632099 9.39516153 13.34229288 10.83379087 13 14 C12 15 12 15 9.93359375 15.09765625 C9.10988281 15.08605469 8.28617188 15.07445312 7.4375 15.0625 C6.61121094 15.05347656 5.78492188 15.04445313 4.93359375 15.03515625 C4.29550781 15.02355469 3.65742188 15.01195312 3 15 C3.875 10.125 3.875 10.125 5 9 C4.01 9 3.02 9 2 9 C2 10.98 2 12.96 2 15 C-4.15234375 15.09765625 -4.15234375 15.09765625 -6 15 C-7 14 -7 14 -7.125 10.5625 C-7 7 -7 7 -6 5 C-5.01 5 -4.02 5 -3 5 C-3.33 3.68 -3.66 2.36 -4 1 C-2 0 -2 0 0 0 Z " fill="#2C4D47" transform="translate(161,324)"/>
<path d="M0 0 C3.72940389 1.24313463 4.84656811 2.76985216 7 6 C6.67 6.99 6.34 7.98 6 9 C5.01 9 4.02 9 3 9 C3.99 10.485 3.99 10.485 5 12 C6.65 11.67 8.3 11.34 10 11 C10.33 15.29 10.66 19.58 11 24 C9.02 24.99 9.02 24.99 7 26 C7 24.35 7 22.7 7 21 C6.62875 21.66 6.2575 22.32 5.875 23 C4 25 4 25 0.8125 25.25 C-0.115625 25.1675 -1.04375 25.085 -2 25 C-4.09230769 20.56923077 -4.09230769 20.56923077 -3.625 17.6875 C-3.41875 17.130625 -3.2125 16.57375 -3 16 C-1.68 15.67 -0.36 15.34 1 15 C1.10540926 12.78918149 1.10540926 12.78918149 0 10 C-1.98 10.99 -1.98 10.99 -4 12 C-4.625 9.625 -4.625 9.625 -5 7 C-4.34 6.34 -3.68 5.68 -3 5 C0.125 5.375 0.125 5.375 3 6 C1.02 4.68 -0.96 3.36 -3 2 C-2.01 1.34 -1.02 0.68 0 0 Z " fill="#294944" transform="translate(220,245)"/>
<path d="M0 0 C-0.38597015 2.79828356 -0.80136573 3.8205884 -2.9375 5.75 C-5 7 -5 7 -7 7 C-7 8.65 -7 10.3 -7 12 C-5.5199159 11.88637738 -4.04089926 11.75877092 -2.5625 11.625 C-1.73878906 11.55539062 -0.91507813 11.48578125 -0.06640625 11.4140625 C0.61550781 11.27742188 1.29742187 11.14078125 2 11 C2.33 10.34 2.66 9.68 3 9 C3.33 10.98 3.66 12.96 4 15 C1.39688008 15.67099984 -1.20735398 16.33695338 -3.8125 17 C-4.91948242 17.28617187 -4.91948242 17.28617187 -6.04882812 17.578125 C-9.10535341 18.35262914 -11.83373478 19 -15 19 C-15.33 19.99 -15.66 20.98 -16 22 C-16.66 19.69 -17.32 17.38 -18 15 C-16.68 15.33 -15.36 15.66 -14 16 C-13.67 15.01 -13.34 14.02 -13 13 C-12.34 13 -11.68 13 -11 13 C-11.66 11.35 -12.32 9.7 -13 8 C-15.31 8.33 -17.62 8.66 -20 9 C-20.33 7.35 -20.66 5.7 -21 4 C-20.14921875 3.87882812 -19.2984375 3.75765625 -18.421875 3.6328125 C-13.73873415 2.76675221 -9.34290235 1.23680557 -4.828125 -0.2578125 C-2 -1 -2 -1 0 0 Z " fill="#030908" transform="translate(176,354)"/>
<path d="M0 0 C2.475 0.99 2.475 0.99 5 2 C4.34 4.97 3.68 7.94 3 11 C5.37374861 11.33425735 5.37374861 11.33425735 8 11 C9.70532323 9.05990478 9.70532323 9.05990478 11 7 C11.66 7 12.32 7 13 7 C13 6.01 13 5.02 13 4 C14.32 4.33 15.64 4.66 17 5 C16.566875 6.39412109 16.566875 6.39412109 16.125 7.81640625 C15.75375 9.05261719 15.3825 10.28882813 15 11.5625 C14.62875 12.78066406 14.2575 13.99882812 13.875 15.25390625 C13.00485057 18.97923349 12.84311596 22.19065949 13 26 C10.69 25.34 8.38 24.68 6 24 C6.66 23.67 7.32 23.34 8 23 C8 20.36 8 17.72 8 15 C5.36 15.66 2.72 16.32 0 17 C0 18.65 0 20.3 0 22 C-1.65 21.67 -3.3 21.34 -5 21 C-4.34 20.67 -3.68 20.34 -3 20 C-2.73602448 18.02018358 -2.47935355 16.03865538 -2.28515625 14.05078125 C-2 12 -2 12 -0.9375 9.4375 C0.2969955 6.22781169 0.13356551 3.40592049 0 0 Z " fill="#030908" transform="translate(264,245)"/>
<path d="M0 0 C4.36350222 2.22291622 7.09544338 4.45022584 9 9 C9.1875 12.8125 9.1875 12.8125 9 16 C7.70911362 13.60263957 6.87860419 11.53309305 6.1875 8.875 C5.27421721 5.89174575 5.27421721 5.89174575 2.875 4.625 C-2.3493185 3.48927859 -6.30141193 2.91579485 -10.9375 5.875 C-14.11331212 9.14704885 -14.33436132 11.46588278 -14.29296875 16.02734375 C-14.12736327 18.24352345 -14.12736327 18.24352345 -12.125 20.4375 C-8.55285054 23.06408048 -6.45305944 23.49478438 -2 23 C0.20278925 21.79215087 2.22268957 20.45703014 4.265625 18.99609375 C4.83796875 18.66738281 5.4103125 18.33867187 6 18 C6.66 18.33 7.32 18.66 8 19 C1.54367934 25.81500514 1.54367934 25.81500514 -4.4375 26.25 C-9.41207517 25.90090701 -11.8784418 25.24617578 -15.25 21.5 C-18.10815127 17.41692676 -18.41925719 15.03108634 -18 10 C-14.20148686 2.54907037 -8.39143052 -1.65818687 0 0 Z " fill="#1D3F3A" transform="translate(328,290)"/>
<path d="M0 0 C3.90285767 1.58667578 6.33520982 4.13350481 9.25 7.125 C10.14203125 8.03507812 11.0340625 8.94515625 11.953125 9.8828125 C12.62859375 10.58148438 13.3040625 11.28015625 14 12 C13.01 13.485 13.01 13.485 12 15 C11.34 14.67 10.68 14.34 10 14 C9.67 14.66 9.34 15.32 9 16 C8.5875 14.7625 8.175 13.525 7.75 12.25 C6.43144781 8.69180176 4.97016433 6.45806703 2 4 C1.57589844 4.49628906 1.15179688 4.99257813 0.71484375 5.50390625 C-3.34243284 10.20321342 -7.54980194 14.67153988 -12 19 C-11.01 19.66 -10.02 20.32 -9 21 C-8.01 20.67 -7.02 20.34 -6 20 C-5.67 20.99 -5.34 21.98 -5 23 C-5.99 23.99 -6.98 24.98 -8 26 C-11.82352106 24.4422692 -14.29205593 22.08404742 -17 19 C-17 18.01 -17 17.02 -17 16 C-16.154375 15.649375 -15.30875 15.29875 -14.4375 14.9375 C-10.73625766 12.85134523 -8.3645474 10.52494684 -5.515625 7.42578125 C-4 6 -4 6 -2 6 C-1.855625 5.195625 -1.71125 4.39125 -1.5625 3.5625 C-1 1 -1 1 0 0 Z " fill="#23433E" transform="translate(308,264)"/>
<path d="M0 0 C2.56695636 0.39491636 4.67123994 0.83561997 7 2 C6.835 3.134375 6.67 4.26875 6.5 5.4375 C6.14367797 7.71132519 6.14367797 7.71132519 6 10 C7.299375 10.2165625 7.299375 10.2165625 8.625 10.4375 C10.875 10.8125 13.125 11.1875 15.375 11.5625 C16.674375 11.7790625 16.674375 11.7790625 18 12 C17 13.5625 17 13.5625 15 15 C12.20089868 14.81941282 9.72492056 14.53544159 7 14 C6.01 13.814375 5.02 13.62875 4 13.4375 C3.34 13.293125 2.68 13.14875 2 13 C3.2491742 16.45925163 4.67527795 19.14693203 7 22 C5.68 22.99 4.36 23.98 3 25 C2.60167969 24.13117188 2.20335937 23.26234375 1.79296875 22.3671875 C-0.05891924 18.88934992 -2.15440004 16.13535068 -4.6875 13.125 C-5.49574219 12.15820312 -6.30398437 11.19140625 -7.13671875 10.1953125 C-7.75160156 9.47085937 -8.36648437 8.74640625 -9 8 C-8.67 7.34 -8.34 6.68 -8 6 C-5.37812506 7.04874998 -4.20628639 7.64931313 -2.75 10.125 C-2.5025 10.74375 -2.255 11.3625 -2 12 C0.59141286 10.8624438 0.59141286 10.8624438 3 9 C3.75 6.5 3.75 6.5 3 4 C1.0995533 2.15684329 1.0995533 2.15684329 -1 1 C-0.67 0.67 -0.34 0.34 0 0 Z " fill="#030908" transform="translate(190,264)"/>
<path d="M0 0 C1.258125 0.12375 2.51625 0.2475 3.8125 0.375 C4.87404297 0.47941406 4.87404297 0.47941406 5.95703125 0.5859375 C8 1 8 1 11 3 C10.67 3.99 10.34 4.98 10 6 C12.31 7.32 14.62 8.64 17 10 C16.6875 11.9375 16.6875 11.9375 16 14 C13 15 13 15 10 14 C10 12.68 10 11.36 10 10 C9.34 9.67 8.68 9.34 8 9 C7.87625 9.804375 7.7525 10.60875 7.625 11.4375 C7.41875 12.283125 7.2125 13.12875 7 14 C6.01 14.495 6.01 14.495 5 15 C3.02 13.68 1.04 12.36 -1 11 C0.32 9.02 1.64 7.04 3 5 C1.68 5 0.36 5 -1 5 C-1.0825 5.78375 -1.165 6.5675 -1.25 7.375 C-2 10 -2 10 -4.0625 11.3125 C-5.0215625 11.6528125 -5.0215625 11.6528125 -6 12 C-4.43358249 7.69235185 -2.31663844 3.93828536 0 0 Z " fill="#294944" transform="translate(168,282)"/>
<path d="M0 0 C3.4375 2 3.4375 2 6 4 C5.67 4.66 5.34 5.32 5 6 C4.34 5.67 3.68 5.34 3 5 C1.04660577 4.82630168 -0.91442704 4.73303898 -2.875 4.6875 C-3.92429687 4.65011719 -4.97359375 4.61273438 -6.0546875 4.57421875 C-9.67486682 5.09756032 -10.82677014 6.11113029 -13 9 C-13.08805146 11.6433774 -13.08805146 11.6433774 -12 14 C-7.7583342 16.8277772 -3.98284464 16.66437928 1 16 C3.41049138 14.91077993 4.95375076 13.72315725 7 12 C6.02552263 15.50811852 5.07842969 16.93404776 2.25 19.3125 C-1.40790174 21.21179514 -2.96468637 21.82353339 -7 21 C-11.23609984 18.53329989 -13.60223845 16.17234982 -15.1875 11.5 C-14.95448282 7.15034603 -13.8211173 5.27859578 -11 2 C-7.58542996 -0.59036348 -4.16717829 -0.43108741 0 0 Z " fill="#030706" transform="translate(335,324)"/>
<path d="M0 0 C6.875 0.875 6.875 0.875 8 2 C8.12535652 3.60048202 8.17574787 5.20715928 8.1875 6.8125 C8.20167969 7.68519531 8.21585938 8.55789063 8.23046875 9.45703125 C8 12 8 12 6 16 C-0.6 15.67 -7.2 15.34 -14 15 C-14 10.71 -14 6.42 -14 2 C-12.68 1.67 -11.36 1.34 -10 1 C-10.99 1.495 -10.99 1.495 -12 2 C-12 4.97 -12 7.94 -12 11 C-9.36 11.33 -6.72 11.66 -4 12 C-4.33 9.69 -4.66 7.38 -5 5 C-3.02 5 -1.04 5 1 5 C0.525625 5.4125 0.05125 5.825 -0.4375 6.25 C-2.36284249 8.13326435 -2.36284249 8.13326435 -3 12 C1.455 11.505 1.455 11.505 6 11 C5.70671668 5.64037108 5.70671668 5.64037108 2.4375 1.5625 C1.633125 1.046875 0.82875 0.53125 0 0 Z " fill="#040A09" transform="translate(167,327)"/>
<path d="M0 0 C0.75 1.6875 0.75 1.6875 1 4 C-1.16036208 7.36056324 -3.16668464 9.72222821 -7 11 C-9.625 11.25 -9.625 11.25 -12 11 C-14 9 -14 9 -14.0625 6.625 C-12.75255815 3.38867307 -10.98363885 2.29000738 -7.921875 0.71484375 C-5.22258012 -0.28916227 -2.8412062 -0.27719085 0 0 Z " fill="#F0F2F2" transform="translate(330,298)"/>
<path d="M0 0 C0.7734375 -0.00515625 1.546875 -0.0103125 2.34375 -0.015625 C4.5 0.25 4.5 0.25 7.5 2.25 C7.125 4.6875 7.125 4.6875 6.5 7.25 C3.87670316 8.56164842 1.86301375 8.38262846 -1.0625 8.375 C-2.05378906 8.37757813 -3.04507812 8.38015625 -4.06640625 8.3828125 C-6.5 8.25 -6.5 8.25 -7.5 7.25 C-7.75 4.8125 -7.75 4.8125 -7.5 2.25 C-4.377998 0.16866533 -3.56733011 -0.0237822 0 0 Z " fill="#F5F6F6" transform="translate(331.5,329.75)"/>
<path d="M0 0 C0.33 0 0.66 0 1 0 C3.40639405 8.23542823 3.33837441 16.3202073 3.31567383 24.82788086 C3.31252042 27.29651357 3.33600655 29.76393718 3.36132812 32.23242188 C3.3967562 41.2449829 2.82192913 49.34686837 0 58 C-0.391875 59.2375 -0.78375 60.475 -1.1875 61.75 C-1.455625 62.4925 -1.72375 63.235 -2 64 C-2.66 63.67 -3.32 63.34 -4 63 C-3.72285156 61.84242188 -3.44570313 60.68484375 -3.16015625 59.4921875 C-2.79416563 57.95315001 -2.42828609 56.41408611 -2.0625 54.875 C-1.88009766 54.11445313 -1.69769531 53.35390625 -1.50976562 52.5703125 C0.37514695 44.61940853 1.19217186 37.23891774 1.1875 29.0625 C1.18886963 28.04647705 1.19023926 27.0304541 1.19165039 25.98364258 C1.14522405 18.74055957 0.55137248 11.80252684 -0.66015625 4.66796875 C-1 2 -1 2 0 0 Z " fill="#545960" transform="translate(348,311)"/>
<path d="M0 0 C1.77131561 0.30975468 3.54203778 0.62290425 5.3125 0.9375 C6.79169922 1.19853516 6.79169922 1.19853516 8.30078125 1.46484375 C11 2 11 2 14 3 C14 3.66 14 4.32 14 5 C12.68 5 11.36 5 10 5 C10 5.99 10 6.98 10 8 C7.8125 10.75 7.8125 10.75 5 13 C2.1875 12.8125 2.1875 12.8125 0 12 C0.08378906 11.38511719 0.16757812 10.77023438 0.25390625 10.13671875 C0.35574219 9.32847656 0.45757812 8.52023438 0.5625 7.6875 C0.66691406 6.88699219 0.77132813 6.08648437 0.87890625 5.26171875 C1.14755178 2.83182884 1.14755178 2.83182884 0 0 Z " fill="#1D3E38" transform="translate(267,244)"/>
<path d="M0 0 C1.34699847 0.0100607 2.69400431 0.01918103 4.04101562 0.02734375 C7.29837021 0.05069396 10.55533549 0.0834423 13.8125 0.125 C13.8125 0.455 13.8125 0.785 13.8125 1.125 C13.19020508 1.1343457 12.56791016 1.14369141 11.92675781 1.15332031 C-10.20059251 1.56744687 -28.233769 4.46854325 -48.1875 14.125 C-49.1775 14.455 -50.1675 14.785 -51.1875 15.125 C-51.5175 14.465 -51.8475 13.805 -52.1875 13.125 C-34.39629042 4.52557494 -20.07187842 -0.2605436 0 0 Z " fill="#3E444C" transform="translate(247.1875,234.875)"/>
<path d="M0 0 C0.33 0.99 0.66 1.98 1 3 C6.43721566 6.55510254 13.75221037 7.46545518 20 9 C19.34 10.32 18.68 11.64 18 13 C14.37 12.01 10.74 11.02 7 10 C8.32 12.64 9.64 15.28 11 18 C11.66 18 12.32 18 13 18 C12.34 19.32 11.68 20.64 11 22 C9.23840997 19.35761495 8.08463473 16.94976825 6.8125 14.0625 C4.34655019 9.00508796 2.11309545 7.20564902 -3 5 C-2.01 3.35 -1.02 1.7 0 0 Z " fill="#050E0C" transform="translate(306,382)"/>
<path d="M0 0 C2 1.375 2 1.375 4 3 C4 3.66 4 4.32 4 5 C2.69675781 5.61294922 2.69675781 5.61294922 1.3671875 6.23828125 C-1.97130532 7.98498689 -4.85511763 9.94100214 -7.875 12.1875 C-8.84179688 12.90292969 -9.80859375 13.61835938 -10.8046875 14.35546875 C-11.52914062 14.89816406 -12.25359375 15.44085938 -13 16 C-15.90802461 13.78071806 -17.95312762 12.07030857 -20 9 C-19.625 6.3125 -19.625 6.3125 -19 4 C-18.01 4.33 -17.02 4.66 -16 5 C-16 6.98 -16 8.96 -16 11 C-11.55678647 10.48055957 -9.16746523 8.89162915 -5.75 6.0625 C-4.44289062 4.99708984 -4.44289062 4.99708984 -3.109375 3.91015625 C-0.93586297 2.17406071 -0.93586297 2.17406071 0 0 Z " fill="#020606" transform="translate(187,381)"/>
<path d="M0 0 C0.66 0.33 1.32 0.66 2 1 C2.73075648 3.3140622 3.40138258 5.64828869 4 8 C6.86724686 7.42655063 7.8614515 7.1385485 10 5 C11.0625 6.8125 11.0625 6.8125 12 9 C11.67 9.99 11.34 10.98 11 12 C10.67 11.34 10.34 10.68 10 10 C8.68 10.33 7.36 10.66 6 11 C6.33 13.64 6.66 16.28 7 19 C7.99 19.33 8.98 19.66 10 20 C7.69 20.66 5.38 21.32 3 22 C2.9175 21.071875 2.835 20.14375 2.75 19.1875 C2.13469798 14.69671361 0.48849993 10.65397135 -1.16015625 6.453125 C-2 4 -2 4 -2 1 C-1.34 0.67 -0.68 0.34 0 0 Z " fill="#020605" transform="translate(211,251)"/>
<path d="M0 0 C9.86109061 0.44878272 18.98694935 3.45665375 28 7.3125 C28.85891846 7.67899658 29.71783691 8.04549316 30.6027832 8.4230957 C36.48916143 11.05490105 41.74569822 14.27106391 47 18 C46.34 18.66 45.68 19.32 45 20 C43.9275 19.29875 42.855 18.5975 41.75 17.875 C28.18028361 9.47695873 13.7956895 4.24218474 -2 2 C-1.34 1.34 -0.68 0.68 0 0 Z " fill="#494F57" transform="translate(261,235)"/>
<path d="M0 0 C0.99 0.33 1.98 0.66 3 1 C4.1875 4.0625 4.1875 4.0625 5 7 C5.94875 6.79375 6.8975 6.5875 7.875 6.375 C9.421875 6.189375 9.421875 6.189375 11 6 C13 8 13 8 13 12 C11.875 13.6875 11.875 13.6875 10 15 C8.00685845 15.372153 6.00660669 15.70906922 4 16 C3.32586789 14.08594633 2.6609668 12.16863974 2 10.25 C1.62875 9.18265625 1.2575 8.1153125 0.875 7.015625 C0 4 0 4 0 0 Z " fill="#20423C" transform="translate(152,355)"/>
<path d="M0 0 C0 0.99 0 1.98 0 3 C-0.66 3.66 -1.32 4.32 -2 5 C-1.72607869 9.40556773 0.23269857 12.2778681 2.75 15.8125 C3.42546875 16.78832031 4.1009375 17.76414062 4.796875 18.76953125 C6.80717391 21.26934318 6.80717391 21.26934318 9.765625 21.32421875 C10.50296875 21.21722656 11.2403125 21.11023438 12 21 C12.33 19.35 12.66 17.7 13 16 C14.32 17.65 15.64 19.3 17 21 C15.76115681 21.72767003 14.50831659 22.43154815 13.25 23.125 C12.55390625 23.51945312 11.8578125 23.91390625 11.140625 24.3203125 C9 25 9 25 7.04321289 24.23730469 C3.6651201 22.19163923 1.59738136 19.20237775 -0.8125 16.125 C-1.5849707 15.18720703 -1.5849707 15.18720703 -2.37304688 14.23046875 C-2.85451172 13.62074219 -3.33597656 13.01101563 -3.83203125 12.3828125 C-4.27264893 11.82996582 -4.7132666 11.27711914 -5.16723633 10.70751953 C-6 9 -6 9 -5.7956543 6.96044922 C-4.57724141 3.95834566 -2.34814525 2.16751869 0 0 Z " fill="#284944" transform="translate(170,381)"/>
<path d="M0 0 C1.32 0.33 2.64 0.66 4 1 C4 2.65 4 4.3 4 6 C3.01 6 2.02 6 1 6 C0.79503906 6.84304687 0.59007812 7.68609375 0.37890625 8.5546875 C0.10949219 9.65039062 -0.15992188 10.74609375 -0.4375 11.875 C-0.83775391 13.51082031 -0.83775391 13.51082031 -1.24609375 15.1796875 C-2 18 -2 18 -3 20 C-2.34 20 -1.68 20 -1 20 C-1.33 21.98 -1.66 23.96 -2 26 C-3.98 25.67 -5.96 25.34 -8 25 C-8.33 24.01 -8.66 23.02 -9 22 C-7.68 22 -6.36 22 -5 22 C-5.03996094 21.15953125 -5.07992188 20.3190625 -5.12109375 19.453125 C-4.98597222 15.59998208 -4.16549559 12.43973615 -3.0625 8.75 C-2.70285156 7.52796875 -2.34320313 6.3059375 -1.97265625 5.046875 C-1 2 -1 2 0 0 Z " fill="#264641" transform="translate(281,248)"/>
<path d="M0 0 C0.33 1.32 0.66 2.64 1 4 C-0.65 4.66 -2.3 5.32 -4 6 C-4 5.34 -4 4.68 -4 4 C-4.75925781 4.28875 -5.51851562 4.5775 -6.30078125 4.875 C-7.79158203 5.431875 -7.79158203 5.431875 -9.3125 6 C-10.29863281 6.37125 -11.28476563 6.7425 -12.30078125 7.125 C-15 8 -15 8 -18 8 C-18 8.99 -18 9.98 -18 11 C-19.98 11.33 -21.96 11.66 -24 12 C-24.66 9.36 -25.32 6.72 -26 4 C-25.01 4 -24.02 4 -23 4 C-22.67 5.32 -22.34 6.64 -22 8 C-21.67 7.34 -21.34 6.68 -21 6 C-14.50701809 3.42162747 -8.01533772 1.34741044 -1 2 C-0.67 1.34 -0.34 0.68 0 0 Z " fill="#1A3B35" transform="translate(182,367)"/>
<path d="M0 0 C5.45479185 0.56820748 9.91059256 1.94637945 15 4 C13.125 7.875 13.125 7.875 12 9 C8.61751889 9.30749828 6.35547624 9.14219049 3.1875 7.875 C1 6 1 6 0.1875 2.8125 C0.125625 1.884375 0.06375 0.95625 0 0 Z " fill="#F3F5F4" transform="translate(320,361)"/>
<path d="M0 0 C0.94875 0.04125 1.8975 0.0825 2.875 0.125 C2.875 0.455 2.875 0.785 2.875 1.125 C1.225 1.455 -0.425 1.785 -2.125 2.125 C-1.97599347 4.53330589 -1.97599347 4.53330589 -1.125 7.125 C0.9337472 8.79669292 0.9337472 8.79669292 3.4375 10.0625 C7.77792395 12.74416321 7.77792395 12.74416321 8.6875 16.3125 C7.875 19.125 7.875 19.125 6.1875 21 C3.54229453 22.28685671 1.78066174 22.36713848 -1.125 22.125 C2.625 20.125 2.625 20.125 4.875 20.125 C4.77330839 17.17772465 4.77330839 17.17772465 3.875 14.125 C1.57965742 12.98954438 1.57965742 12.98954438 -1.125 12.125 C-4 9.8125 -4 9.8125 -6.125 7.125 C-6.01788355 2.51899277 -4.83248718 0.19329949 0 0 Z " fill="#030707" transform="translate(243.125,243.875)"/>
<path d="M0 0 C1.8871875 0.00773437 1.8871875 0.00773437 3.8125 0.015625 C5.070625 0.01046875 6.32875 0.0053125 7.625 0 C10.8125 0.265625 10.8125 0.265625 12.8125 2.265625 C12.66081437 6.51282272 9.48433599 9.25124593 6.8125 12.265625 C4.875 11.890625 4.875 11.890625 2.8125 11.265625 C2.4825 10.605625 2.1525 9.945625 1.8125 9.265625 C2.1425 8.605625 2.4725 7.945625 2.8125 7.265625 C4.1325 7.265625 5.4525 7.265625 6.8125 7.265625 C7.1425 6.605625 7.4725 5.945625 7.8125 5.265625 C3.5225 4.275625 -0.7675 3.285625 -5.1875 2.265625 C-3.1875 0.265625 -3.1875 0.265625 0 0 Z " fill="#20423C" transform="translate(317.1875,386.734375)"/>
<path d="M0 0 C1.24018982 3.72056947 0.28310714 5.05185463 -1.40014648 8.44482422 C-1.76309814 9.14365723 -2.1260498 9.84249023 -2.5 10.5625 C-3.05312866 11.64168701 -3.05312866 11.64168701 -3.61743164 12.74267578 C-8.75074842 22.568208 -16.34078022 36.57269427 -27 41 C-26.21625 40.113125 -25.4325 39.22625 -24.625 38.3125 C-23.41019777 36.88046255 -22.20290224 35.44204781 -21 34 C-20.23816406 33.08863281 -19.47632813 32.17726563 -18.69140625 31.23828125 C-11.86079503 22.74530599 -6.82199697 13.75232222 -2 4 C-1.5875 3.17628906 -1.175 2.35257812 -0.75 1.50390625 C-0.5025 1.00761719 -0.255 0.51132812 0 0 Z " fill="#444A52" transform="translate(344,374)"/>
<path d="M0 0 C4.455 0.99 4.455 0.99 9 2 C9 2.66 9 3.32 9 4 C8.01 4.495 8.01 4.495 7 5 C7.99 6.32 8.98 7.64 10 9 C8.74057614 10.19959375 7.46704714 11.38439443 6.1875 12.5625 C5.12595703 13.55443359 5.12595703 13.55443359 4.04296875 14.56640625 C3.36878906 15.03949219 2.69460937 15.51257813 2 16 C1.01 15.67 0.02 15.34 -1 15 C-1 14.01 -1 13.02 -1 12 C0.32 11.67 1.64 11.34 3 11 C3.31819148 7.84552447 3.31819148 7.84552447 0.9375 5.5 C0.298125 4.675 -0.34125 3.85 -1 3 C-0.67 2.01 -0.34 1.02 0 0 Z " fill="#1F413B" transform="translate(192,276)"/>
<path d="M0 0 C3 1 3 1 4 3 C4.46422487 8.84923339 4.46422487 8.84923339 4 11 C1.64160699 13.57174396 0.26105456 13.97635375 -3.234375 14.29296875 C-4.39453125 14.25816406 -5.5546875 14.22335937 -6.75 14.1875 C-7.92046875 14.16042969 -9.0909375 14.13335937 -10.296875 14.10546875 C-11.18890625 14.07066406 -12.0809375 14.03585937 -13 14 C-12.67 10.37 -12.34 6.74 -12 3 C-10 6 -10 6 -9 9 C-8.34 9.33 -7.68 9.66 -7 10 C-7 10.66 -7 11.32 -7 12 C-2.66770285 11.1395861 -2.66770285 11.1395861 1 9 C1.14636054 5.63370749 1.07193479 3.21580438 0 0 Z " fill="#193C36" transform="translate(249,254)"/>
<path d="M0 0 C0.99 0.33 1.98 0.66 3 1 C2.49210938 1.8765625 1.98421875 2.753125 1.4609375 3.65625 C-5.08262421 15.51884725 -8.13495736 27.82344444 -11 41 C-11.33 41 -11.66 41 -12 41 C-13.56559127 26.52697851 -6.28378629 12.60379037 0 0 Z " fill="#494F56" transform="translate(157,286)"/>
<path d="M0 0 C0.625 2.8125 0.625 2.8125 1 6 C0.01 7.485 0.01 7.485 -1 9 C-1 9.99 -1 10.98 -1 12 C-3.31 11.34 -5.62 10.68 -8 10 C-8 7.36 -8 4.72 -8 2 C-4.91190305 0.23537317 -3.76687864 0 0 0 Z " fill="#274842" transform="translate(272,260)"/>
<path d="M0 0 C1.32 1.32 2.64 2.64 4 4 C-1 9 -6 14 -11 19 C-11.99 17.68 -12.98 16.36 -14 15 C-13.48050781 14.55269531 -12.96101563 14.10539062 -12.42578125 13.64453125 C-4.91228756 7.77088414 -4.91228756 7.77088414 0 0 Z " fill="#020706" transform="translate(309,267)"/>
<path d="M0 0 C3.72940389 1.24313463 4.84656811 2.76985216 7 6 C6.67 6.99 6.34 7.98 6 9 C5.01 9 4.02 9 3 9 C3.33 10.32 3.66 11.64 4 13 C3.01 13 2.02 13 1 13 C0.67 12.01 0.34 11.02 0 10 C-1.98 10.99 -1.98 10.99 -4 12 C-4.625 9.625 -4.625 9.625 -5 7 C-4.34 6.34 -3.68 5.68 -3 5 C0.125 5.375 0.125 5.375 3 6 C1.02 4.68 -0.96 3.36 -3 2 C-2.01 1.34 -1.02 0.68 0 0 Z " fill="#33534D" transform="translate(220,245)"/>
<path d="M0 0 C5.39628376 0.92507722 9.12783616 2.12783616 13 6 C14.97620986 7.04622875 16.9737129 8.05439935 19 9 C18.34 10.65 17.68 12.3 17 14 C15.625 13.08333333 14.25 12.16666667 12.875 11.25 C12.05386719 10.70601563 11.23273438 10.16203125 10.38671875 9.6015625 C8.98009877 8.65767676 7.58241956 7.69977877 6.20703125 6.7109375 C3.0563333 4.4592819 2.05730336 4 -2 4 C-1.34 2.68 -0.68 1.36 0 0 Z " fill="#020706" transform="translate(165,293)"/>
<path d="M0 0 C0.33 1.65 0.66 3.3 1 5 C0.01 4.67 -0.98 4.34 -2 4 C-2.33 4.66 -2.66 5.32 -3 6 C-5.41403774 6.99799853 -7.77583097 7.86976617 -10.25 8.6875 C-10.91902344 8.92533203 -11.58804688 9.16316406 -12.27734375 9.40820312 C-16.22209116 10.72957726 -18.99980072 11.27913349 -23 10 C-22.67 9.01 -22.34 8.02 -22 7 C-20.845 6.896875 -19.69 6.79375 -18.5 6.6875 C-13.98828481 6.13964887 -10.19394251 4.7225121 -6 3 C-6 2.34 -6 1.68 -6 1 C-3.92446352 0.4465236 -2.15634036 0 0 0 Z " fill="#2D4D47" transform="translate(177,348)"/>
<path d="M0 0 C2.475 0.99 2.475 0.99 5 2 C1.92482916 15.6332574 1.92482916 15.6332574 0 22 C-1.65 21.67 -3.3 21.34 -5 21 C-4.34 20.67 -3.68 20.34 -3 20 C-2.73602448 18.02018358 -2.47935355 16.03865538 -2.28515625 14.05078125 C-2 12 -2 12 -0.9375 9.4375 C0.2969955 6.22781169 0.13356551 3.40592049 0 0 Z " fill="#030706" transform="translate(264,245)"/>
<path d="M0 0 C4.46527093 1.59473962 6.85507843 5.06903334 9.75 8.625 C10.25660156 9.23601562 10.76320312 9.84703125 11.28515625 10.4765625 C12.5296029 11.97929053 13.76564128 13.48897467 15 15 C13.68 16.32 12.36 17.64 11 19 C10.60167969 18.13117188 10.20335937 17.26234375 9.79296875 16.3671875 C7.94108076 12.88934992 5.84559996 10.13535068 3.3125 7.125 C2.50425781 6.15820312 1.69601563 5.19140625 0.86328125 4.1953125 C0.24839844 3.47085937 -0.36648437 2.74640625 -1 2 C-0.67 1.34 -0.34 0.68 0 0 Z " fill="#020605" transform="translate(182,270)"/>
<path d="M0 0 C0.33 0.99 0.66 1.98 1 3 C2.76785073 3.70303541 2.76785073 3.70303541 4.9375 4 C10.0823277 4.97602841 15.00668555 6.43633159 20 8 C19.34 9.32 18.68 10.64 18 12 C11.73 10.02 5.46 8.04 -1 6 C-0.67 4.02 -0.34 2.04 0 0 Z " fill="#020505" transform="translate(320,352)"/>
<path d="M0 0 C0 2.31 0 4.62 0 7 C-0.66 7 -1.32 7 -2 7 C-2 7.66 -2 8.32 -2 9 C-1.34 9 -0.68 9 0 9 C-0.33 10.65 -0.66 12.3 -1 14 C-2.98 14 -4.96 14 -7 14 C-7.125 7.25 -7.125 7.25 -6 5 C-5.01 5 -4.02 5 -3 5 C-3.33 3.68 -3.66 2.36 -4 1 C-2 0 -2 0 0 0 Z " fill="#31514B" transform="translate(161,324)"/>
<path d="M0 0 C0 0.99 0 1.98 0 3 C-1.19238281 3.34933594 -2.38476562 3.69867188 -3.61328125 4.05859375 C-5.17969593 4.51820045 -6.74610171 4.97783745 -8.3125 5.4375 C-9.49102539 5.78264648 -9.49102539 5.78264648 -10.69335938 6.13476562 C-11.45068359 6.35712891 -12.20800781 6.57949219 -12.98828125 6.80859375 C-13.68477783 7.01282959 -14.38127441 7.21706543 -15.09887695 7.42749023 C-16.74173766 7.92222612 -18.37230856 8.45743619 -20 9 C-20.33 7.35 -20.66 5.7 -21 4 C-20.14921875 3.87882812 -19.2984375 3.75765625 -18.421875 3.6328125 C-13.73873415 2.76675221 -9.34290235 1.23680557 -4.828125 -0.2578125 C-2 -1 -2 -1 0 0 Z " fill="#020504" transform="translate(176,354)"/>
<path d="M0 0 C1.98 0 3.96 0 6 0 C6.10807131 1.93627769 6.1856225 3.87427756 6.25 5.8125 C6.29640625 6.89144531 6.3428125 7.97039062 6.390625 9.08203125 C6 12 6 12 3.984375 13.88671875 C3.32953125 14.25410156 2.6746875 14.62148437 2 15 C-0.31 13.35 -2.62 11.7 -5 10 C-4.67 8.68 -4.34 7.36 -4 6 C-1.03824877 6.61277612 0.38058783 7.25372522 3 9 C3.66 6.36 4.32 3.72 5 1 C3.35 1 1.7 1 0 1 C0 0.67 0 0.34 0 0 Z " fill="#425F5A" transform="translate(246,241)"/>
<path d="M0 0 C3.3 0 6.6 0 10 0 C9.67 2.97 9.34 5.94 9 9 C6.36 7.68 3.72 6.36 1 5 C1 5.66 1 6.32 1 7 C0.34 7 -0.32 7 -1 7 C-0.7525 6.1028125 -0.7525 6.1028125 -0.5 5.1875 C0.1114124 2.88655664 0.1114124 2.88655664 0 0 Z " fill="#132E29" transform="translate(241,242)"/>
<path d="M0 0 C2.46800047 1.15173355 4.04783565 2.04783565 6 4 C5.67 5.32 5.34 6.64 5 8 C7.64 8.66 10.28 9.32 13 10 C13 11.32 13 12.64 13 14 C12.34 14.66 11.68 15.32 11 16 C10.67 15.01 10.34 14.02 10 13 C8.67851173 12.62243192 7.34164079 12.2981424 6 12 C3.25 10.875 3.25 10.875 1 9 C0.75 5.4375 0.75 5.4375 1 2 C0.67 1.34 0.34 0.68 0 0 Z " fill="#1A3833" transform="translate(174,289)"/>
<path d="M0 0 C1.75390625 1.515625 1.75390625 1.515625 3 3 C2.41992188 3.02578125 1.83984375 3.0515625 1.2421875 3.078125 C-4.16439396 3.47068207 -7.87815872 4.17975686 -12 8 C-13.43917432 11.61416517 -13.43917432 11.61416517 -14 15 C-14.33 15 -14.66 15 -15 15 C-15.66964286 7.23214286 -15.66964286 7.23214286 -12.625 3.5625 C-8.78226745 -0.18873892 -5.30067309 -0.88169612 0 0 Z " fill="#030807" transform="translate(328,293)"/>
<path d="M0 0 C0.226875 0.5775 0.45375 1.155 0.6875 1.75 C2.48091087 4.82441864 3.89694228 6.189883 7 8 C11.04093083 8.46454795 15.29778834 8.85110583 19 7 C17.125 10.875 17.125 10.875 16 12 C11.09400888 12.55419529 7.21062213 12.74119722 2.9375 10.125 C-0.20198871 6.6816898 -0.09948269 4.5762039 0 0 Z " fill="#030807" transform="translate(317,363)"/>
<path d="M0 0 C-3.75 3 -3.75 3 -6 3 C-6.16687448 5.41645782 -6.16687448 5.41645782 -6 8 C-5.34 8.66 -4.68 9.32 -4 10 C-6.97 10.66 -9.94 11.32 -13 12 C-12.67 11.01 -12.34 10.02 -12 9 C-11.34 9 -10.68 9 -10 9 C-11.39759905 5.45481116 -11.39759905 5.45481116 -13 2 C-11.39935157 1.46845258 -9.79431126 0.95011647 -8.1875 0.4375 C-7.29417969 0.14746094 -6.40085938 -0.14257812 -5.48046875 -0.44140625 C-3 -1 -3 -1 0 0 Z " fill="#163631" transform="translate(175,358)"/>
<path d="M0 0 C0.75 1.6875 0.75 1.6875 1 4 C-1.15795427 7.35681775 -3.15789851 9.75696717 -7 11 C-10.0625 11.3125 -10.0625 11.3125 -13 11 C-14.68359375 9.48046875 -14.68359375 9.48046875 -16 8 C-15.11248047 7.83564453 -15.11248047 7.83564453 -14.20703125 7.66796875 C-8.12210786 6.44701349 -3.60207627 5.40311441 0 0 Z " fill="#030706" transform="translate(333,303)"/>
<path d="M0 0 C1.65 0.33 3.3 0.66 5 1 C5.36458333 5.49652778 5.36458333 5.49652778 3.6875 7.8125 C2 9 2 9 -1 9 C-2.75 7.25 -2.75 7.25 -4 5 C-3.6875 2.75 -3.6875 2.75 -3 1 C-2.01 1.33 -1.02 1.66 0 2 C0 1.34 0 0.68 0 0 Z " fill="#496560" transform="translate(189,267)"/>
<path d="M0 0 C5.75 1.625 5.75 1.625 8 5 C5.69 4.67 3.38 4.34 1 4 C0.4465236 6.07553648 0 7.84365964 0 10 C1.32 9.01 2.64 8.02 4 7 C4.33 7.66 4.66 8.32 5 9 C3.68 10.32 2.36 11.64 1 13 C0.01 12.67 -0.98 12.34 -2 12 C-3.25 8.5625 -3.25 8.5625 -4 5 C-3.67 4.34 -3.34 3.68 -3 3 C-2.34 3 -1.68 3 -1 3 C-0.67 2.01 -0.34 1.02 0 0 Z " fill="#122D29" transform="translate(216,247)"/>
<path d="M0 0 C0.33 0 0.66 0 1 0 C1 3.96 1 7.92 1 12 C-0.65 12 -2.3 12 -4 12 C-4 11.34 -4 10.68 -4 10 C-5.65 10 -7.3 10 -9 10 C-9 9.34 -9 8.68 -9 8 C-10.98 8 -12.96 8 -15 8 C-15 7.67 -15 7.34 -15 7 C-10.71 7 -6.42 7 -2 7 C-1.34 4.69 -0.68 2.38 0 0 Z " fill="#163631" transform="translate(175,335)"/>
<path d="M0 0 C6.36332579 0.02885862 10.02697515 1.1365252 14.6875 5.52734375 C17.59667538 8.79150779 17.07814873 11.77996866 17 16 C16.67 14.68 16.34 13.36 16 12 C15.34 12 14.68 12 14 12 C13.731875 11.113125 13.46375 10.22625 13.1875 9.3125 C9.94379844 4.40060907 5.36754053 3.05953168 0 1 C0 0.67 0 0.34 0 0 Z " fill="#31504B" transform="translate(328,321)"/>
<path d="M0 0 C1.60080151 4.00200378 0.29279692 7.04556236 -1 11 C-1.66 10.67 -2.32 10.34 -3 10 C-3 9.34 -3 8.68 -3 8 C-5.31 8.66 -7.62 9.32 -10 10 C-9.67 7.69 -9.34 5.38 -9 3 C-6.03 3.495 -6.03 3.495 -3 4 C-2.01 2.68 -1.02 1.36 0 0 Z " fill="#13302C" transform="translate(275,252)"/>
<path d="M0 0 C-0.33 1.65 -0.66 3.3 -1 5 C0.32 5.33 1.64 5.66 3 6 C2.67 6.99 2.34 7.98 2 9 C0.35 9.33 -1.3 9.66 -3 10 C-4.32 8.02 -5.64 6.04 -7 4 C-2.25 0 -2.25 0 0 0 Z " fill="#1A3631" transform="translate(180,393)"/>
<path d="M0 0 C6.06292614 -0.41813284 9.19707988 -0.13274522 14 4 C17.20219742 7.94937682 17.29402058 11.00165008 17 16 C15.70911362 13.60263957 14.87860419 11.53309305 14.1875 8.875 C13.27936293 5.80602898 13.27936293 5.80602898 10.5 4.6875 C9.675 4.460625 8.85 4.23375 8 4 C7.34 3.67 6.68 3.34 6 3 C6 2.34 6 1.68 6 1 C4.02 1 2.04 1 0 1 C0 0.67 0 0.34 0 0 Z " fill="#32524D" transform="translate(320,290)"/>
<path d="M0 0 C0.66 0.33 1.32 0.66 2 1 C1.484375 1.7425 0.96875 2.485 0.4375 3.25 C-1.24942772 5.83215454 -1.24942772 5.83215454 -0.6875 8.3125 C-0.460625 8.869375 -0.23375 9.42625 0 10 C1.65 10.33 3.3 10.66 5 11 C5 11.66 5 12.32 5 13 C1.625 13.625 1.625 13.625 -2 14 C-4 12 -4 12 -4.375 8.125 C-4.31541346 4.84774032 -4.14649924 4.18312405 -2 1.5 C-1.34 1.005 -0.68 0.51 0 0 Z " fill="#183A34" transform="translate(318,298)"/>
<path d="M0 0 C2.46082467 0.95698737 4.81755638 1.89804621 7.125 3.1875 C9.16049285 4.31725799 9.16049285 4.31725799 12 3 C11.43628586 6.26954202 10.50037734 7.82575883 8 10 C6.68 9.34 5.36 8.68 4 8 C4 7.01 4 6.02 4 5 C2.68 4.34 1.36 3.68 0 3 C0 2.01 0 1.02 0 0 Z " fill="#1D3F39" transform="translate(173,301)"/>
<path d="M0 0 C-2.17424117 2.50037734 -3.73045798 3.43628586 -7 4 C-7 5.65 -7 7.3 -7 9 C-8.32 9 -9.64 9 -11 9 C-11.33 7.02 -11.66 5.04 -12 3 C-10.3789897 2.30314502 -8.75303934 1.61777139 -7.125 0.9375 C-6.22007812 0.55464844 -5.31515625 0.17179688 -4.3828125 -0.22265625 C-2 -1 -2 -1 0 0 Z " fill="#254540" transform="translate(216,248)"/>
<path d="M0 0 C3 1 3 1 5 4 C4.01 4 3.02 4 2 4 C2 4.66 2 5.32 2 6 C1.01 6 0.02 6 -1 6 C-1.66 6.66 -2.32 7.32 -3 8 C-5 9 -5 9 -8 10 C-6.23915938 6.0381086 -3.9706445 1.98532225 0 0 Z " fill="#183631" transform="translate(187,263)"/>
<path d="M0 0 C2.97 0.495 2.97 0.495 6 1 C6 1.99 6 2.98 6 4 C6.66 4 7.32 4 8 4 C8 4.66 8 5.32 8 6 C6.33388095 6.042721 4.66617115 6.04063832 3 6 C2.67 5.67 2.34 5.34 2 5 C1.67 5.99 1.34 6.98 1 8 C0.01 8.33 -0.98 8.66 -2 9 C-1.34 6.03 -0.68 3.06 0 0 Z " fill="#2F4F49" transform="translate(318,349)"/>
<path d="M0 0 C10.395 1.98 10.395 1.98 21 4 C19 6 19 6 16.96875 6.08203125 C10.71107447 5.39883566 4.96108613 4.01662276 -1 2 C-0.67 1.34 -0.34 0.68 0 0 Z " fill="#4D535B" transform="translate(216,436)"/>
<path d="M0 0 C0.0825 0.5775 0.165 1.155 0.25 1.75 C1.20531013 4.6159304 2.78469173 5.9990764 5 8 C1.7 7.67 -1.6 7.34 -5 7 C-4.67 5.02 -4.34 3.04 -4 1 C-2.68 0.67 -1.36 0.34 0 0 Z " fill="#2F4E49" transform="translate(260,261)"/>
<path d="M0 0 C0.99 0 1.98 0 3 0 C3.33 1.32 3.66 2.64 4 4 C4.33 3.34 4.66 2.68 5 2 C7.97 2.495 7.97 2.495 11 3 C10.01 3.33 9.02 3.66 8 4 C8 4.99 8 5.98 8 7 C6.02 7.33 4.04 7.66 2 8 C1.34 5.36 0.68 2.72 0 0 Z " fill="#304F4A" transform="translate(156,371)"/>
<path d="M0 0 C2.90161528 0.32141877 5.6456763 0.74772823 8.5 1.3125 C9.28503906 1.45623047 10.07007813 1.59996094 10.87890625 1.74804688 C16.67236865 2.83618432 16.67236865 2.83618432 19 4 C19 4.66 19 5.32 19 6 C18.40574219 5.87882813 17.81148438 5.75765625 17.19921875 5.6328125 C10.81321092 4.34170672 4.41352965 3.14614408 -2 2 C-1.34 1.34 -0.68 0.68 0 0 Z " fill="#4F555C" transform="translate(261,235)"/>
<path d="M0 0 C0.33 0.66 0.66 1.32 1 2 C-0.258125 2.391875 -1.51625 2.78375 -2.8125 3.1875 C-6.77158276 4.63986193 -8.12998067 6.15607138 -10 10 C-10.66 10 -11.32 10 -12 10 C-11.70197895 6.52308771 -10.9882377 4.98487704 -8.8125 2.1875 C-5.54121494 -0.35683282 -4.03884885 -0.46963359 0 0 Z " fill="#1F413B" transform="translate(331,322)"/>
<path d="M0 0 C1.28488954 2.14850383 2.03605301 3.48169093 1.85986328 6.01464844 C1.68181152 6.7059082 1.50375977 7.39716797 1.3203125 8.109375 C1.13339844 8.86347656 0.94648438 9.61757813 0.75390625 10.39453125 C0.44259766 11.56048828 0.44259766 11.56048828 0.125 12.75 C-0.17470703 13.93916016 -0.17470703 13.93916016 -0.48046875 15.15234375 C-0.97445701 17.10477355 -1.48557931 19.05285391 -2 21 C-2.33 21 -2.66 21 -3 21 C-3.44032071 13.48193151 -2.28612778 7.15775723 0 0 Z " fill="#545A61" transform="translate(148,306)"/>
<path d="M0 0 C1.67542976 0.28604898 3.34385343 0.61781233 5 1 C4.67 2.65 4.34 4.3 4 6 C0.25 7.125 0.25 7.125 -2 6 C-1.125 1.125 -1.125 1.125 0 0 Z " fill="#7C908D" transform="translate(269,250)"/>
<path d="M0 0 C0.33 0 0.66 0 1 0 C1 1.65 1 3.3 1 5 C1.66 5 2.32 5 3 5 C4.35278115 6.98689731 5.68568305 8.98745218 7 11 C7.66 11.33 8.32 11.66 9 12 C9 12.99 9 13.98 9 15 C5.53371274 14.03714243 4.06582992 13.07650505 1.6875 10.3125 C-0.22487823 6.55857236 -0.33242149 4.15526857 0 0 Z " fill="#35544E" transform="translate(314,362)"/>
<path d="M0 0 C1.32 0 2.64 0 4 0 C3.64393309 2.58148508 3.16671807 3.82045747 1.375 5.75 C-1.83134123 7.43754802 -4.43348514 7.20576047 -8 7 C-7.67 6.34 -7.34 5.68 -7 5 C-6.01 4.690625 -5.02 4.38125 -4 4.0625 C-2.515 3.5365625 -2.515 3.5365625 -1 3 C-0.67 2.01 -0.34 1.02 0 0 Z " fill="#294A45" transform="translate(208,274)"/>
<path d="M0 0 C5.76774721 4.89004655 11.39476999 9.92484204 17 15 C16.01 15.33 15.02 15.66 14 16 C11.65861457 13.71643754 9.32833018 11.42186626 7 9.125 C5.99839844 8.14853516 5.99839844 8.14853516 4.9765625 7.15234375 C4.34492188 6.52714844 3.71328125 5.90195312 3.0625 5.2578125 C2.47597656 4.6817627 1.88945312 4.10571289 1.28515625 3.51220703 C0 2 0 2 0 0 Z " fill="#3E444C" transform="translate(168,404)"/>
<path d="M0 0 C2 3 2 3 1.828125 5.05078125 C1.63734375 5.79714844 1.4465625 6.54351562 1.25 7.3125 C1.05148437 8.10140625 0.85296875 8.8903125 0.6484375 9.703125 C-0.14221996 12.50376709 -1.01676746 15.26099506 -2 18 C-2.66 17.67 -3.32 17.34 -4 17 C-2.68 11.39 -1.36 5.78 0 0 Z " fill="#52585F" transform="translate(348,357)"/>
<path d="M0 0 C0.33 0 0.66 0 1 0 C1.08121924 1.60332791 1.13929134 3.20784026 1.1875 4.8125 C1.22230469 5.70582031 1.25710937 6.59914063 1.29296875 7.51953125 C1 10 1 10 -0.3125 11.75 C-2.6814821 13.50480156 -5.18895222 14.18791953 -8 15 C-7.34 13.68 -6.68 12.36 -6 11 C-5.01 11 -4.02 11 -3 11 C-0.87953208 7.46588679 -0.46800711 4.05606165 0 0 Z " fill="#142B27" transform="translate(227,259)"/>
<path d="M0 0 C0.33 0 0.66 0 1 0 C1 1.65 1 3.3 1 5 C1.66 5 2.32 5 3 5 C3.45375 5.969375 3.9075 6.93875 4.375 7.9375 C5.65786221 11.07079582 5.65786221 11.07079582 8 12 C8 12.99 8 13.98 8 15 C3.76089421 13.48603365 2.06361144 10.90612165 0 7 C-0.25 3.125 -0.25 3.125 0 0 Z " fill="#32524D" transform="translate(310,300)"/>
<path d="M0 0 C0.33 0.66 0.66 1.32 1 2 C1.66 2 2.32 2 3 2 C2.67 3.98 2.34 5.96 2 8 C-0.97 7.505 -0.97 7.505 -4 7 C-4.33 6.01 -4.66 5.02 -5 4 C-3.68 4 -2.36 4 -1 4 C-0.67 2.68 -0.34 1.36 0 0 Z " fill="#2C4D47" transform="translate(277,266)"/>
<path d="M0 0 C3 1 3 1 4 3 C4.50948509 8.3495935 4.50948509 8.3495935 4 11 C1.5 13 1.5 13 -1 14 C-0.67 13.29875 -0.34 12.5975 0 11.875 C1.48414354 7.60808731 1.42275398 4.26826195 0 0 Z " fill="#21433E" transform="translate(249,254)"/>
<path d="M0 0 C3.3 0 6.6 0 10 0 C10 0.99 10 1.98 10 3 C7.03 3 4.06 3 1 3 C0.67 2.01 0.34 1.02 0 0 Z " fill="#24433E" transform="translate(323,375)"/>
<path d="M0 0 C0.99 0.33 1.98 0.66 3 1 C1.2633385 2.53604715 -0.48982755 4.05345163 -2.25 5.5625 C-3.22453125 6.40941406 -4.1990625 7.25632812 -5.203125 8.12890625 C-8 10 -8 10 -10.359375 9.77734375 C-10.90078125 9.52082031 -11.4421875 9.26429688 -12 9 C-11.30132812 8.51789063 -10.60265625 8.03578125 -9.8828125 7.5390625 C-8.97273438 6.90742188 -8.06265625 6.27578125 -7.125 5.625 C-6.22007812 4.99851562 -5.31515625 4.37203125 -4.3828125 3.7265625 C-1.96505875 2.0701905 -1.96505875 2.0701905 0 0 Z " fill="#4B5158" transform="translate(315,415)"/>
<path d="M0 0 C-1 2 -1 2 -3.25 3.1875 C-6.30248582 4.08937081 -7.97734454 3.86361585 -11 3 C-10.67 2.01 -10.34 1.02 -10 0 C-2.25 -1.125 -2.25 -1.125 0 0 Z " fill="#1A3C36" transform="translate(165,355)"/>
<path d="M0 0 C1.65 0.33 3.3 0.66 5 1 C4.33333333 3 3.66666667 5 3 7 C2.01 7.33 1.02 7.66 0 8 C-1.125 2.25 -1.125 2.25 0 0 Z " fill="#32524C" transform="translate(262,242)"/>
<path d="M0 0 C2.56695636 0.39491636 4.67123994 0.83561997 7 2 C7 3.65 7 5.3 7 7 C6.01 7.495 6.01 7.495 5 8 C4.566875 7.21625 4.13375 6.4325 3.6875 5.625 C2.10779753 2.78301625 2.10779753 2.78301625 -1 1 C-0.67 0.67 -0.34 0.34 0 0 Z " fill="#020706" transform="translate(190,264)"/>
<path d="M0 0 C1.60226148 4.00565371 0.47694566 7.08609399 -1 11 C-1.99 11.33 -2.98 11.66 -4 12 C-3.71788123 10.3733152 -3.42397625 8.74867104 -3.125 7.125 C-2.96257812 6.22007812 -2.80015625 5.31515625 -2.6328125 4.3828125 C-2 2 -2 2 0 0 Z " fill="#1B3C36" transform="translate(280,255)"/>
<path d="M0 0 C3.3 0 6.6 0 10 0 C10 1.98 10 3.96 10 6 C9.67 4.68 9.34 3.36 9 2 C8.46375 2.185625 7.9275 2.37125 7.375 2.5625 C4.38009386 3.11419324 1.96254171 2.60597444 -1 2 C-0.67 1.34 -0.34 0.68 0 0 Z " fill="#183C36" transform="translate(241,242)"/>
<path d="M0 0 C2.1640625 0.2421875 2.1640625 0.2421875 4.625 0.875 C5.44226563 1.07867187 6.25953125 1.28234375 7.1015625 1.4921875 C8.04128906 1.74355469 8.04128906 1.74355469 9 2 C9 2.99 9 3.98 9 5 C5.37 4.01 1.74 3.02 -2 2 C-1.34 1.34 -0.68 0.68 0 0 Z " fill="#1A3A35" transform="translate(326,354)"/>
<path d="M0 0 C0.99 0 1.98 0 3 0 C4.35439668 2.70879335 4.06501451 5.00933268 4 8 C1.36 8 -1.28 8 -4 8 C-4 7.67 -4 7.34 -4 7 C-2.35 7 -0.7 7 1 7 C1.33 5.35 1.66 3.7 2 2 C1.34 2 0.68 2 0 2 C0 1.34 0 0.68 0 0 Z " fill="#163530" transform="translate(159,331)"/>
<path d="M0 0 C6.875 0.875 6.875 0.875 8 2 C8.07205511 3.68608966 8.08386068 5.37500659 8.0625 7.0625 C8.05347656 7.98160156 8.04445312 8.90070313 8.03515625 9.84765625 C8.02355469 10.55792969 8.01195312 11.26820313 8 12 C7.34 11.67 6.68 11.34 6 11 C5.896875 9.906875 5.79375 8.81375 5.6875 7.6875 C5.34494061 3.85142341 5.34494061 3.85142341 2.4375 1.5625 C1.633125 1.046875 0.82875 0.53125 0 0 Z " fill="#0A1816" transform="translate(167,327)"/>
<path d="M0 0 C0.66 0.33 1.32 0.66 2 1 C2 1.66 2 2.32 2 3 C1.319375 3.598125 0.63875 4.19625 -0.0625 4.8125 C-1.0215625 5.8953125 -1.0215625 5.8953125 -2 7 C-1.80398092 9.74426716 -1.22394754 11.55210492 0 14 C-0.99 13.67 -1.98 13.34 -3 13 C-4.07763474 8.50985524 -4.37757467 6.66989054 -2.0625 2.5625 C-1.381875 1.716875 -0.70125 0.87125 0 0 Z " fill="#081513" transform="translate(324,326)"/>
<path d="M0 0 C0.66 1.32 1.32 2.64 2 4 C3.32 3.01 4.64 2.02 6 1 C6.33 1.66 6.66 2.32 7 3 C5.68 4.32 4.36 5.64 3 7 C2.01 6.67 1.02 6.34 0 6 C-0.38218767 4.34385343 -0.71395102 2.67542976 -1 1 C-0.67 0.67 -0.34 0.34 0 0 Z " fill="#1B3D38" transform="translate(214,253)"/>
<path d="M0 0 C4.77609498 1.64178265 8.79382904 4.26546702 13 7 C12.34 7.66 11.68 8.32 11 9 C9.35050343 7.88037801 7.70550162 6.75413155 6.0625 5.625 C5.14597656 4.99851562 4.22945312 4.37203125 3.28515625 3.7265625 C1 2 1 2 0 0 Z " fill="#4A5058" transform="translate(184,420)"/>
<path d="M0 0 C2.1640625 0.0234375 2.1640625 0.0234375 4.625 0.375 C5.85089844 0.54128906 5.85089844 0.54128906 7.1015625 0.7109375 C7.72804688 0.80632812 8.35453125 0.90171875 9 1 C9.33 1.99 9.66 2.98 10 4 C4.06 3.01 4.06 3.01 -2 2 C-1.34 1.34 -0.68 0.68 0 0 Z " fill="#183933" transform="translate(314,387)"/>
<path d="M0 0 C0.66 0 1.32 0 2 0 C2.33 0.99 2.66 1.98 3 3 C6.3 3.33 9.6 3.66 13 4 C13 4.33 13 4.66 13 5 C9.37 5.33 5.74 5.66 2 6 C1.01 4.35 0.02 2.7 -1 1 C-0.67 0.67 -0.34 0.34 0 0 Z " fill="#46635E" transform="translate(322,334)"/>
<path d="M0 0 C2.64 0.66 5.28 1.32 8 2 C7.67 3.32 7.34 4.64 7 6 C6.67 5.01 6.34 4.02 6 3 C3.69 3.66 1.38 4.32 -1 5 C-0.67 3.35 -0.34 1.7 0 0 Z " fill="#1A3D37" transform="translate(266,257)"/>
<path d="M0 0 C3.21852831 0.63065757 5.50801069 1.78020695 8.25 3.5625 C8.95640625 4.01753906 9.6628125 4.47257813 10.390625 4.94140625 C11.18726563 5.46541016 11.18726563 5.46541016 12 6 C11.34 6.66 10.68 7.32 10 8 C9.44570313 7.65066406 8.89140625 7.30132812 8.3203125 6.94140625 C7.59585937 6.48636719 6.87140625 6.03132812 6.125 5.5625 C5.40570313 5.11003906 4.68640625 4.65757812 3.9453125 4.19140625 C2.0222453 2.97538499 2.0222453 2.97538499 0 2 C0 1.34 0 0.68 0 0 Z " fill="#52575F" transform="translate(296,247)"/>
<path d="M0 0 C0.99 0.33 1.98 0.66 3 1 C2.95875 1.94875 2.9175 2.8975 2.875 3.875 C2.65026182 7.10244856 2.65026182 7.10244856 5 9 C2 9 2 9 0.25 7.3125 C-1 5 -1 5 -0.6875 2.25 C-0.460625 1.5075 -0.23375 0.765 0 0 Z " fill="#0E2420" transform="translate(168,385)"/>
<path d="M0 0 C-1.1446875 0.86625 -1.1446875 0.86625 -2.3125 1.75 C-4.66200917 3.71703093 -6.29323505 5.48476744 -8 8 C-8.66 7.67 -9.32 7.34 -10 7 C-8.07091409 1.3611335 -6.01450566 -0.32510841 0 0 Z " fill="#102723" transform="translate(175,285)"/>
<path d="M0 0 C6.4 -0.49230769 6.4 -0.49230769 9.4375 2 C10.2109375 2.99 10.2109375 2.99 11 4 C10.01 4.495 10.01 4.495 9 5 C8.01 4.34 7.02 3.68 6 3 C4.01200182 2.29835358 2.01301483 1.62627128 0 1 C0 0.67 0 0.34 0 0 Z " fill="#274842" transform="translate(188,262)"/>
<path d="M0 0 C0.33 1.32 0.66 2.64 1 4 C-0.65 4.66 -2.3 5.32 -4 6 C-4 5.34 -4 4.68 -4 4 C-4.99 4.33 -5.98 4.66 -7 5 C-6.67 4.01 -6.34 3.02 -6 2 C-4.35 2 -2.7 2 -1 2 C-0.67 1.34 -0.34 0.68 0 0 Z " fill="#284A44" transform="translate(182,367)"/>
<path d="M0 0 C0.33 0.99 0.66 1.98 1 3 C-0.32 4.32 -1.64 5.64 -3 7 C-4.32 6.34 -5.64 5.68 -7 5 C-6.67 4.34 -6.34 3.68 -6 3 C-5.01 3 -4.02 3 -3 3 C-1.31201173 1.56249809 -1.31201173 1.56249809 0 0 Z " fill="#2F4F4A" transform="translate(184,304)"/>
<path d="M0 0 C0.99 0 1.98 0 3 0 C3.33 1.32 3.66 2.64 4 4 C2.35 5.32 0.7 6.64 -1 8 C-0.67 6.68 -0.34 5.36 0 4 C-0.66 4 -1.32 4 -2 4 C-1.34 2.68 -0.68 1.36 0 0 Z " fill="#294944" transform="translate(305,279)"/>
<path d="M0 0 C0 0.66 0 1.32 0 2 C-4.455 3.485 -4.455 3.485 -9 5 C-8.67 3.68 -8.34 2.36 -8 1 C-5.29120665 -0.35439668 -2.99066732 -0.06501451 0 0 Z " fill="#284943" transform="translate(328,296)"/>
<path d="M0 0 C1.5625 1.8125 1.5625 1.8125 3 4 C2.67 4.99 2.34 5.98 2 7 C1.67 6.34 1.34 5.68 1 5 C-1.16874252 5.50603992 -2.99967627 5.99983813 -5 7 C-5.33 5.68 -5.66 4.36 -6 3 C-5.195625 2.87625 -4.39125 2.7525 -3.5625 2.625 C-2.716875 2.41875 -1.87125 2.2125 -1 2 C-0.67 1.34 -0.34 0.68 0 0 Z " fill="#0C1F1C" transform="translate(220,256)"/>
<path d="M0 0 C3.16130459 4.21507278 3.3367697 5.06071112 3 10 C2.01 10.33 1.02 10.66 0 11 C0 7.37 0 3.74 0 0 Z " fill="#14312C" transform="translate(333,298)"/>
<path d="M0 0 C0.80824219 0.11085938 1.61648437 0.22171875 2.44921875 0.3359375 C3.37154297 0.47902344 3.37154297 0.47902344 4.3125 0.625 C3.6525 1.285 2.9925 1.945 2.3125 2.625 C-0.0703125 2.6015625 -0.0703125 2.6015625 -2.8125 2.25 C-3.72257813 2.13914062 -4.63265625 2.02828125 -5.5703125 1.9140625 C-6.26898438 1.81867188 -6.96765625 1.72328125 -7.6875 1.625 C-4.33422361 -0.61051759 -3.78006343 -0.54783528 0 0 Z " fill="#5E646A" transform="translate(232.6875,439.375)"/>
<path d="M0 0 C0.66 0.33 1.32 0.66 2 1 C-1.625 5.875 -1.625 5.875 -5 7 C-3.75023244 3.34683329 -3.32901247 2.21934164 0 0 Z " fill="#2B4B45" transform="translate(342,339)"/>
<path d="M0 0 C0.33 0.99 0.66 1.98 1 3 C1.66 3 2.32 3 3 3 C3 4.98 3 6.96 3 9 C2.01 9.33 1.02 9.66 0 10 C0 6.7 0 3.4 0 0 Z " fill="#14332E" transform="translate(341,330)"/>
<path d="M0 0 C0.66 0.33 1.32 0.66 2 1 C1.01 2.485 1.01 2.485 0 4 C-0.38499891 5.65549531 -0.72793135 7.3222433 -1 9 C-1.66 9 -2.32 9 -3 9 C-3.1875 5.625 -3.1875 5.625 -3 2 C-2.01 1.34 -1.02 0.68 0 0 Z " fill="#1A3B35" transform="translate(314,296)"/>
<path d="M0 0 C0.99 0.66 1.98 1.32 3 2 C1.84826645 4.46800047 0.95216435 6.04783565 -1 8 C-1.625 5.125 -1.625 5.125 -2 2 C-1.34 1.34 -0.68 0.68 0 0 Z " fill="#1D403B" transform="translate(171,382)"/>
<path d="M0 0 C1.32 0 2.64 0 4 0 C4 1.32 4 2.64 4 4 C2.35 4 0.7 4 -1 4 C-0.67 2.68 -0.34 1.36 0 0 Z " fill="#D9DFDE" transform="translate(161,363)"/>
<path d="M0 0 C1.32 0 2.64 0 4 0 C3.67 1.32 3.34 2.64 3 4 C1.68 4 0.36 4 -1 4 C-0.67 2.68 -0.34 1.36 0 0 Z " fill="#EAEDED" transform="translate(171,360)"/>
<path d="M0 0 C2 3 2 3 1.625 5.1875 C1.41875 5.785625 1.2125 6.38375 1 7 C-0.65 7.33 -2.3 7.66 -4 8 C-4.33 7.34 -4.66 6.68 -5 6 C-4.360625 5.566875 -3.72125 5.13375 -3.0625 4.6875 C-0.73253997 3.08760823 -0.73253997 3.08760823 0 0 Z " fill="#0E2420" transform="translate(194,270)"/>
<path d="M0 0 C-3.18762365 2.12508244 -5.26512223 2.5020163 -9 3 C-9.33 2.34 -9.66 1.68 -10 1 C-3.71428571 -1.42857143 -3.71428571 -1.42857143 0 0 Z " fill="#565C63" transform="translate(225,238)"/>
<path d="M0 0 C7.75 -0.125 7.75 -0.125 10 1 C10 1.66 10 2.32 10 3 C6.7 2.34 3.4 1.68 0 1 C0 0.67 0 0.34 0 0 Z " fill="#60656C" transform="translate(270,238)"/>
<path d="M0 0 C2.56687367 3.8503105 1.83288724 5.58569763 1 10 C0.34 9.67 -0.32 9.34 -1 9 C-0.67 6.03 -0.34 3.06 0 0 Z " fill="#696E74" transform="translate(348,357)"/>
<path d="M0 0 C0.66 0.33 1.32 0.66 2 1 C-2.75 5.875 -2.75 5.875 -5 7 C-3.75023244 3.34683329 -3.32901247 2.21934164 0 0 Z " fill="#2B4B46" transform="translate(334,308)"/>
<path d="M0 0 C0.99 0.33 1.98 0.66 3 1 C2.67 2.32 2.34 3.64 2 5 C1.01 5 0.02 5 -1 5 C-0.67 3.35 -0.34 1.7 0 0 Z " fill="#EEF1F1" transform="translate(268,260)"/>
<path d="M0 0 C2 3 2 3 3 6 C3.66 6.66 4.32 7.32 5 8 C3.35 8 1.7 8 0 8 C0 5.36 0 2.72 0 0 Z " fill="#091715" transform="translate(237,257)"/>
</svg>
